#Comment line ignore any data following # character 
#Hierarchical Translation and Rotation (.htr) file 
[Header]	
#Header keywords are followed by a single value 
FileType HTR		#Single word string
DataType HTRS		#Translation followed by rotation and scale data
FileVersion 1		#integer
NumSegments 84		#integer
NumFrames 2		#integer
DataFrameRate 30		#integer, data frame rate in this file
EulerRotationOrder ZYX
CalibrationUnits mm
RotationUnits Degrees
GlobalAxisofGravity Y
BoneLengthAxis Y
ScaleFactor 1.00
[SegmentNames&Hierarchy]
#CHILD	PARENT
MASTER GLOBAL
root MASTER
chest root
L_mid_tent01 root
R_mid_tent01 root
spine01 root
Bip01_Neck chest
L_humerus chest
R_humerus chest
weapon_bone chest
Bip01_Head Bip01_Neck
eye_left_bone Bip01_Head
eye_right_bone Bip01_Head
L_forearm L_humerus
L_front_hand L_forearm
L_weapon_bone L_forearm
L_front_hand01_01 L_front_hand
L_front_hand02_01 L_front_hand
L_front_hand03_01 L_front_hand
L_front_hand01_02 L_front_hand01_01
L_front_hand02_02 L_front_hand02_01
L_front_hand03_02 L_front_hand03_01
R_forearm R_humerus
R_front_hand R_forearm
R_weapon_bone R_forearm
R_front_hand01_01 R_front_hand
R_front_hand02_01 R_front_hand
R_front_hand03_01 R_front_hand
R_front_hand01_02 R_front_hand01_01
R_front_hand02_02 R_front_hand02_01
R_front_hand03_02 R_front_hand03_01
null_rope01_connect L_mid_tent01
Rope1_Seg01 null_rope01_connect
Rope1_Seg02 Rope1_Seg01
Rope1_Seg03 Rope1_Seg02
Rope1_Seg04 Rope1_Seg03
Rope1_Seg05 Rope1_Seg04
Rope1_Seg06 Rope1_Seg05
Rope1_Seg07 Rope1_Seg06
Rope1_Seg09 Rope1_Seg07
L_mid_hand01 Rope1_Seg09
L_mid_hand02 Rope1_Seg09
L_mid_hand03 Rope1_Seg09
null_rope02_connect R_mid_tent01
Rope2_Seg01 null_rope02_connect
Rope2_Seg02 Rope2_Seg01
Rope2_Seg03 Rope2_Seg02
Rope2_Seg04 Rope2_Seg03
Rope2_Seg05 Rope2_Seg04
Rope2_Seg06 Rope2_Seg05
Rope2_Seg07 Rope2_Seg06
Rope2_Seg09 Rope2_Seg07
R_mid_hand01 Rope2_Seg09
R_mid_hand02 Rope2_Seg09
R_mid_hand03 Rope2_Seg09
spine02 spine01
spine03 spine02
pelvis spine03
null_rope03_connect pelvis
null_rope04_connect pelvis
Rope3_Seg01 null_rope03_connect
Rope3_Seg02 Rope3_Seg01
Rope3_Seg03 Rope3_Seg02
Rope3_Seg04 Rope3_Seg03
Rope3_Seg05 Rope3_Seg04
Rope3_Seg06 Rope3_Seg05
Rope3_Seg07 Rope3_Seg06
Rope3_Seg08 Rope3_Seg07
Rope3_Seg09 Rope3_Seg08
R_rear_hand01 Rope3_Seg09
R_rear_hand02 Rope3_Seg09
R_rear_hand03 Rope3_Seg09
Rope4_Seg01 null_rope04_connect
Rope4_Seg02 Rope4_Seg01
Rope4_Seg03 Rope4_Seg02
Rope4_Seg04 Rope4_Seg03
Rope4_Seg05 Rope4_Seg04
Rope4_Seg06 Rope4_Seg05
Rope4_Seg07 Rope4_Seg06
Rope4_Seg08 Rope4_Seg07
Rope4_Seg09 Rope4_Seg08
L_rear_hand01 Rope4_Seg09
L_rear_hand02 Rope4_Seg09
L_rear_hand03 Rope4_Seg09
[BasePosition]
#SegmentName Tx, Ty, Tz, Rx, Ry, Rz, BoneLength
MASTER 0.000000 0.000000 0.000000 -90.000000 0.000000 0.000000 10.000000 
root 0.000000 0.000000 0.000000 0.000000 0.000000 0.000000 10.000000 
chest 0.000000 0.000000 0.000000 0.000000 0.000000 0.000000 10.000000 
L_mid_tent01 0.000000 0.000000 0.000000 0.000000 0.000000 0.000000 10.000000 
R_mid_tent01 0.000000 0.000000 0.000000 0.000000 0.000000 0.000000 10.000000 
spine01 0.000000 0.000000 0.000000 0.000000 0.000000 0.000000 10.000000 
Bip01_Neck 0.000000 0.000000 0.000000 0.000000 0.000000 0.000000 10.000000 
L_humerus 0.000000 0.000000 0.000000 0.000000 0.000000 0.000000 10.000000 
R_humerus 0.000000 0.000000 0.000000 0.000000 0.000000 0.000000 10.000000 
weapon_bone 0.000000 0.000000 0.000000 0.000000 0.000000 0.000000 10.000000 
Bip01_Head 0.000000 0.000000 0.000000 0.000000 0.000000 0.000000 10.000000 
eye_left_bone 0.000000 0.000000 0.000000 0.000000 0.000000 0.000000 10.000000 
eye_right_bone 0.000000 0.000000 0.000000 0.000000 0.000000 0.000000 10.000000 
L_forearm 0.000000 0.000000 0.000000 0.000000 0.000000 0.000000 10.000000 
L_front_hand 0.000000 0.000000 0.000000 0.000000 0.000000 0.000000 10.000000 
L_weapon_bone 0.000000 0.000000 0.000000 0.000000 0.000000 0.000000 10.000000 
L_front_hand01_01 0.000000 0.000000 0.000000 0.000000 0.000000 0.000000 10.000000 
L_front_hand02_01 0.000000 0.000000 0.000000 0.000000 0.000000 0.000000 10.000000 
L_front_hand03_01 0.000000 0.000000 0.000000 0.000000 0.000000 0.000000 10.000000 
L_front_hand01_02 0.000000 0.000000 0.000000 0.000000 0.000000 0.000000 10.000000 
L_front_hand02_02 0.000000 0.000000 0.000000 0.000000 0.000000 0.000000 10.000000 
L_front_hand03_02 0.000000 0.000000 0.000000 0.000000 0.000000 0.000000 10.000000 
R_forearm 0.000000 0.000000 0.000000 0.000000 0.000000 0.000000 10.000000 
R_front_hand 0.000000 0.000000 0.000000 0.000000 0.000000 0.000000 10.000000 
R_weapon_bone 0.000000 0.000000 0.000000 0.000000 0.000000 0.000000 10.000000 
R_front_hand01_01 0.000000 0.000000 0.000000 0.000000 0.000000 0.000000 10.000000 
R_front_hand02_01 0.000000 0.000000 0.000000 0.000000 0.000000 0.000000 10.000000 
R_front_hand03_01 0.000000 0.000000 0.000000 0.000000 0.000000 0.000000 10.000000 
R_front_hand01_02 0.000000 0.000000 0.000000 0.000000 0.000000 0.000000 10.000000 
R_front_hand02_02 0.000000 0.000000 0.000000 0.000000 0.000000 0.000000 10.000000 
R_front_hand03_02 0.000000 0.000000 0.000000 0.000000 0.000000 0.000000 10.000000 
null_rope01_connect 0.000000 0.000000 0.000000 0.000000 0.000000 0.000000 10.000000 
Rope1_Seg01 0.000000 0.000000 0.000000 0.000000 0.000000 0.000000 10.000000 
Rope1_Seg02 0.000000 0.000000 0.000000 0.000000 0.000000 0.000000 10.000000 
Rope1_Seg03 0.000000 0.000000 0.000000 0.000000 0.000000 0.000000 10.000000 
Rope1_Seg04 0.000000 0.000000 0.000000 0.000000 0.000000 0.000000 10.000000 
Rope1_Seg05 0.000000 0.000000 0.000000 0.000000 0.000000 0.000000 10.000000 
Rope1_Seg06 0.000000 0.000000 0.000000 0.000000 0.000000 0.000000 10.000000 
Rope1_Seg07 0.000000 0.000000 0.000000 0.000000 0.000000 0.000000 10.000000 
Rope1_Seg09 0.000000 0.000000 0.000000 0.000000 0.000000 0.000000 10.000000 
L_mid_hand01 0.000000 0.000000 0.000000 0.000000 0.000000 0.000000 10.000000 
L_mid_hand02 0.000000 0.000000 0.000000 0.000000 0.000000 0.000000 10.000000 
L_mid_hand03 0.000000 0.000000 0.000000 0.000000 0.000000 0.000000 10.000000 
null_rope02_connect 0.000000 0.000000 0.000000 0.000000 0.000000 0.000000 10.000000 
Rope2_Seg01 0.000000 0.000000 0.000000 0.000000 0.000000 0.000000 10.000000 
Rope2_Seg02 0.000000 0.000000 0.000000 0.000000 0.000000 0.000000 10.000000 
Rope2_Seg03 0.000000 0.000000 0.000000 0.000000 0.000000 0.000000 10.000000 
Rope2_Seg04 0.000000 0.000000 0.000000 0.000000 0.000000 0.000000 10.000000 
Rope2_Seg05 0.000000 0.000000 0.000000 0.000000 0.000000 0.000000 10.000000 
Rope2_Seg06 0.000000 0.000000 0.000000 0.000000 0.000000 0.000000 10.000000 
Rope2_Seg07 0.000000 0.000000 0.000000 0.000000 0.000000 0.000000 10.000000 
Rope2_Seg09 0.000000 0.000000 0.000000 0.000000 0.000000 0.000000 10.000000 
R_mid_hand01 0.000000 0.000000 0.000000 0.000000 0.000000 0.000000 10.000000 
R_mid_hand02 0.000000 0.000000 0.000000 0.000000 0.000000 0.000000 10.000000 
R_mid_hand03 0.000000 0.000000 0.000000 0.000000 0.000000 0.000000 10.000000 
spine02 0.000000 0.000000 0.000000 0.000000 0.000000 0.000000 10.000000 
spine03 0.000000 0.000000 0.000000 0.000000 0.000000 0.000000 10.000000 
pelvis 0.000000 0.000000 0.000000 0.000000 0.000000 0.000000 10.000000 
null_rope03_connect 0.000000 0.000000 0.000000 0.000000 0.000000 0.000000 10.000000 
null_rope04_connect 0.000000 0.000000 0.000000 0.000000 0.000000 0.000000 10.000000 
Rope3_Seg01 0.000000 0.000000 0.000000 0.000000 0.000000 0.000000 10.000000 
Rope3_Seg02 0.000000 0.000000 0.000000 0.000000 0.000000 0.000000 10.000000 
Rope3_Seg03 0.000000 0.000000 0.000000 0.000000 0.000000 0.000000 10.000000 
Rope3_Seg04 0.000000 0.000000 0.000000 0.000000 0.000000 0.000000 10.000000 
Rope3_Seg05 0.000000 0.000000 0.000000 0.000000 0.000000 0.000000 10.000000 
Rope3_Seg06 0.000000 0.000000 0.000000 0.000000 0.000000 0.000000 10.000000 
Rope3_Seg07 0.000000 0.000000 0.000000 0.000000 0.000000 0.000000 10.000000 
Rope3_Seg08 0.000000 0.000000 0.000000 0.000000 0.000000 0.000000 10.000000 
Rope3_Seg09 0.000000 0.000000 0.000000 0.000000 0.000000 0.000000 10.000000 
R_rear_hand01 0.000000 0.000000 0.000000 0.000000 0.000000 0.000000 10.000000 
R_rear_hand02 0.000000 0.000000 0.000000 0.000000 0.000000 0.000000 10.000000 
R_rear_hand03 0.000000 0.000000 0.000000 0.000000 0.000000 0.000000 10.000000 
Rope4_Seg01 0.000000 0.000000 0.000000 0.000000 0.000000 0.000000 10.000000 
Rope4_Seg02 0.000000 0.000000 0.000000 0.000000 0.000000 0.000000 10.000000 
Rope4_Seg03 0.000000 0.000000 0.000000 0.000000 0.000000 0.000000 10.000000 
Rope4_Seg04 0.000000 0.000000 0.000000 0.000000 0.000000 0.000000 10.000000 
Rope4_Seg05 0.000000 0.000000 0.000000 0.000000 0.000000 0.000000 10.000000 
Rope4_Seg06 0.000000 0.000000 0.000000 0.000000 0.000000 0.000000 10.000000 
Rope4_Seg07 0.000000 0.000000 0.000000 0.000000 0.000000 0.000000 10.000000 
Rope4_Seg08 0.000000 0.000000 0.000000 0.000000 0.000000 0.000000 10.000000 
Rope4_Seg09 0.000000 0.000000 0.000000 0.000000 0.000000 0.000000 10.000000 
L_rear_hand01 0.000000 0.000000 0.000000 0.000000 0.000000 0.000000 10.000000 
L_rear_hand02 0.000000 0.000000 0.000000 0.000000 0.000000 0.000000 10.000000 
L_rear_hand03 0.000000 0.000000 0.000000 0.000000 0.000000 0.000000 10.000000 
#Beginning of Data. Separated by tabs
#Fr	Tx	Ty	Tz	Rx	Ry	Rz	SF
[MASTER]
95 -0.000607 4049.358398 0.000000 0.001660 0.001660 0.001660 4049.358398
96 -0.000614 4093.468750 0.000000 0.001660 0.001660 0.001660 4093.468506
[root]
95 540.103821 160.325943 1255.294067 -102.238243 -21.037188 -75.962875 1375.928711
96 594.451660 152.257874 1277.076294 -100.083702 -20.696581 -77.497200 1416.855347
[chest]
95 -84.512650 -34.090519 0.000000 -3.669512 -3.002000 178.267944 91.129311
96 -84.512650 -34.090519 0.000000 -3.597202 -3.112936 177.935349 91.129311
[L_mid_tent01]
95 27.477242 22.075575 -251.060516 -48.542320 60.676006 19.433397 253.522614
96 27.469090 22.080252 -251.008087 -48.850559 57.802784 18.554632 253.470200
[R_mid_tent01]
95 23.228794 24.509907 226.238495 161.411942 -25.331293 96.052322 228.744751
96 23.228794 24.509907 226.238495 162.019577 -27.808529 94.464485 228.744751
[spine01]
95 -0.361383 -0.195265 0.000000 0.001869 0.001420 15.534141 0.410763
96 -0.361383 -0.195265 0.000000 0.001869 0.001420 15.534141 0.410763
[Bip01_Neck]
95 165.484543 71.581718 0.000119 175.896118 1.177290 24.871183 180.302734
96 165.484543 71.581718 0.000119 175.896118 1.177290 24.871183 180.302734
[L_humerus]
95 -13.983130 -135.272980 -120.471481 175.500610 55.921967 -64.828331 181.680161
96 -13.983130 -135.272980 -120.471481 175.500610 55.921959 -64.828316 181.680161
[R_humerus]
95 -13.983309 -135.273102 125.287651 -178.898193 -46.892139 -62.295097 184.909012
96 -13.983309 -135.273102 125.287651 -178.898193 -46.892124 -62.295071 184.909012
[weapon_bone]
95 235.964890 -300.705902 0.000000 0.000000 -89.951546 -128.212341 382.234833
96 235.964890 -300.705902 0.000000 0.000000 -89.951546 -128.212341 382.234833
[Bip01_Head]
95 180.836624 168.374115 17.860498 5.970434 18.573647 -69.571526 247.731155
96 181.259125 169.741516 17.649395 7.465356 18.932800 -68.416008 248.954910
[eye_left_bone]
95 -24.626970 125.451866 -64.772606 0.000000 -90.000000 -99.840431 143.318359
96 -24.626970 125.451866 -64.772606 0.000000 -90.000000 -99.840431 143.318359
[eye_right_bone]
95 -24.626970 125.451866 64.327362 0.000000 -89.960434 80.159386 143.117676
96 -24.626970 125.451866 64.327362 0.000000 -89.960434 80.159386 143.117676
[L_forearm]
95 322.776093 0.000000 -0.000119 0.000640 0.002258 -58.348755 322.776093
96 322.776093 0.000000 -0.000119 0.000640 0.002258 -58.348751 322.776093
[L_front_hand]
95 241.149185 -0.042021 -3.300071 -178.667953 -1.835447 -27.422342 241.171753
96 241.149185 -0.042021 -3.300071 -178.667953 -1.835447 -27.422350 241.171753
[L_weapon_bone]
95 156.183838 0.000000 0.000000 0.000014 0.000007 0.000001 156.183838
96 156.183838 0.000000 0.000000 0.000014 0.000007 0.000001 156.183838
[L_front_hand01_01]
95 86.095154 20.947098 -0.655860 -0.366594 -0.477154 75.385574 88.609184
96 86.095154 20.947098 -0.655860 -0.366594 -0.477154 75.385574 88.609184
[L_front_hand02_01]
95 86.935165 -11.437475 24.513514 154.403519 -59.888931 -61.371990 91.046425
96 86.935165 -11.437475 24.513514 154.403519 -59.888931 -61.371990 91.046425
[L_front_hand03_01]
95 86.637497 -14.123976 -20.424902 -153.913879 58.118130 -62.702892 90.126129
96 86.637497 -14.123976 -20.424902 -153.913879 58.118130 -62.702892 90.126129
[L_front_hand01_02]
95 71.020905 -0.000179 0.000030 0.000334 -0.002323 -106.379684 71.020905
96 71.020905 -0.000179 0.000030 0.000334 -0.002323 -106.379684 71.020905
[L_front_hand02_02]
95 71.020927 -0.000119 0.000060 0.000334 -0.002323 -106.379684 71.020927
96 71.020927 -0.000119 0.000060 0.000334 -0.002323 -106.379684 71.020927
[L_front_hand03_02]
95 71.020905 -0.000060 0.000060 0.000334 -0.002323 -106.379684 71.020905
96 71.020905 -0.000060 0.000060 0.000334 -0.002323 -106.379684 71.020905
[R_forearm]
95 322.776428 -0.000060 0.000030 0.178801 -0.113338 -58.530384 322.776428
96 322.776428 -0.000060 0.000030 0.178801 -0.113338 -58.530384 322.776428
[R_front_hand]
95 238.847015 -0.006795 2.210259 -1.531694 0.790216 -51.443062 238.857239
96 238.847015 -0.006795 2.210259 -1.531694 0.790216 -51.443054 238.857239
[R_weapon_bone]
95 155.664093 0.002503 -0.000030 0.003487 0.001180 -90.988930 155.664078
96 155.664093 0.002503 -0.000030 0.003487 0.001180 -90.988930 155.664078
[R_front_hand01_01]
95 87.624611 14.231146 22.918642 -154.633514 -59.950634 61.746063 91.683487
96 87.624611 14.231146 22.918642 -154.633484 -59.950619 61.746037 91.683487
[R_front_hand02_01]
95 89.356956 14.367283 -19.491137 154.602661 58.302849 63.744389 92.579636
96 89.356956 14.367283 -19.491137 154.602661 58.302849 63.744389 92.579636
[R_front_hand03_01]
95 87.286232 -22.307278 -0.143439 0.162155 -0.423168 -75.767921 90.091743
96 87.286232 -22.307278 -0.143439 0.162155 -0.423168 -75.767921 90.091743
[R_front_hand01_02]
95 71.020905 0.000060 0.000119 0.002323 -0.000334 106.381714 71.020905
96 71.020905 0.000060 0.000119 0.002323 -0.000334 106.381714 71.020905
[R_front_hand02_02]
95 71.020844 -0.000030 -0.000119 0.002323 -0.000334 106.381714 71.020836
96 71.020844 -0.000030 -0.000119 0.002323 -0.000334 106.381714 71.020836
[R_front_hand03_02]
95 71.020905 0.000000 0.000030 0.002323 -0.000334 106.381714 71.020905
96 71.020905 0.000000 0.000030 0.002323 -0.000334 106.381714 71.020905
[null_rope01_connect]
95 328.732483 0.000000 -0.000238 -143.952988 -15.770947 -141.947754 328.732483
96 328.732483 0.000000 -0.000238 -144.867126 -18.355824 -141.102142 328.732483
[Rope1_Seg01]
95 3.319185 -5.367130 -4.918058 -18.708298 17.218969 -97.900841 8.000648
96 3.657377 -5.178844 -4.880068 -20.512810 18.044092 -98.093430 8.000744
[Rope1_Seg02]
95 139.999863 -0.000179 0.000000 9.623906 -0.196765 -4.721329 139.999863
96 139.999863 -0.000179 0.000000 9.916062 -0.172700 -4.745605 139.999863
[Rope1_Seg03]
95 139.999924 0.000060 -0.000060 30.479179 -2.021291 -9.565863 139.999924
96 139.999924 0.000060 -0.000060 33.072632 -2.103447 -9.962195 139.999924
[Rope1_Seg04]
95 139.999924 -0.000060 -0.000119 73.394127 -22.992954 -26.107840 139.999924
96 139.999924 -0.000060 -0.000119 76.026665 -27.656767 -29.244217 139.999924
[Rope1_Seg05]
95 139.999832 0.000119 -0.000060 -7.405726 -49.787308 35.262318 139.999832
96 139.999832 0.000119 -0.000060 -9.611125 -46.937893 36.348644 139.999832
[Rope1_Seg06]
95 139.999954 0.000119 -0.000060 -2.339334 -16.331217 6.161821 139.999954
96 139.999954 0.000119 -0.000060 -2.676528 -15.396966 5.357185 139.999954
[Rope1_Seg07]
95 139.999985 0.000060 0.000000 -4.731244 -14.833810 -2.087802 139.999985
96 139.999985 0.000060 0.000000 -6.327439 -16.725340 -1.690785 139.999985
[Rope1_Seg09]
95 121.602913 0.000119 -0.000089 -89.793175 -1.359789 0.847147 121.602913
96 121.602913 0.000119 -0.000089 -89.793175 -1.359789 0.847147 121.602913
[L_mid_hand01]
95 103.859421 1.038730 8.195221 116.294914 -23.111713 -31.758034 104.187431
96 103.859421 1.038730 8.195221 116.294914 -23.111713 -31.758034 104.187431
[L_mid_hand02]
95 105.572853 -4.139662 -10.864139 -144.219833 17.447468 -35.360519 106.211075
96 105.572853 -4.139662 -10.864139 -144.219833 17.447468 -35.360519 106.211075
[L_mid_hand03]
95 104.641464 17.579376 -3.913581 -17.830778 17.153101 31.982922 106.179977
96 104.641464 17.579376 -3.913581 -17.830780 17.153103 31.982925 106.179977
[null_rope02_connect]
95 328.732849 0.000179 -0.000119 -103.144211 54.948383 60.405067 328.732849
96 328.732849 0.000179 -0.000119 -109.411385 54.019024 52.648224 328.732849
[Rope2_Seg01]
95 0.000028 0.000439 0.000096 -14.371507 68.667809 96.231972 0.000451
96 0.000028 0.000443 0.000097 -29.329020 63.182350 79.395706 0.000454
[Rope2_Seg02]
95 139.999741 -0.000060 -0.000119 -0.114167 1.161818 6.156219 139.999756
96 139.999741 -0.000060 -0.000119 -0.254425 1.642519 7.016072 139.999756
[Rope2_Seg03]
95 140.000107 0.000030 0.000000 0.151291 1.572417 8.717362 140.000107
96 140.000107 0.000030 0.000000 0.010471 2.265060 10.215297 140.000107
[Rope2_Seg04]
95 139.999802 0.000000 -0.000060 0.828279 0.939234 12.755784 139.999802
96 139.999802 0.000000 -0.000060 0.819222 1.873691 15.120654 139.999802
[Rope2_Seg05]
95 139.999985 -0.000060 0.000119 2.521899 5.713392 15.743196 139.999985
96 139.999985 -0.000060 0.000119 2.486139 6.725920 17.087368 139.999985
[Rope2_Seg06]
95 139.999893 -0.000030 -0.000119 1.753244 7.107620 10.467365 139.999893
96 139.999893 -0.000030 -0.000119 1.616511 7.988311 11.527333 139.999893
[Rope2_Seg07]
95 139.999893 0.000060 -0.000060 0.703194 3.953365 6.958356 139.999893
96 139.999893 0.000060 -0.000060 0.510381 4.464382 7.694007 139.999893
[Rope2_Seg09]
95 121.338966 0.000089 -0.000060 33.793236 -1.359788 -0.847141 121.338966
96 121.338966 0.000089 -0.000060 33.793236 -1.359788 -0.847141 121.338966
[R_mid_hand01]
95 104.680779 11.144459 -10.335981 -41.523792 25.424656 28.595957 105.778534
96 104.680779 11.144459 -10.335981 -41.523792 25.424656 28.595957 105.778534
[R_mid_hand02]
95 104.070427 2.443552 8.231699 72.847389 -32.746803 10.013901 104.424065
96 104.070427 2.443552 8.231699 72.847389 -32.746803 10.013901 104.424065
[R_mid_hand03]
95 106.028137 -11.221827 -5.996406 -167.901306 10.259192 -37.009720 106.788818
96 106.028137 -11.221827 -5.996406 -167.901306 10.259192 -37.009720 106.788818
[spine02]
95 129.756927 0.001550 0.000119 -0.245322 -4.052060 -4.355547 129.756927
96 129.756927 0.001550 0.000119 -0.245322 -4.052060 -4.355547 129.756927
[spine03]
95 78.614227 0.087280 -4.898823 0.369659 4.260734 -4.885720 78.766754
96 78.614235 0.087280 -4.898824 0.369659 4.260734 -4.885720 78.766769
[pelvis]
95 169.435242 0.051022 0.000000 -0.010007 -0.191417 -1.897554 169.435257
96 169.435242 0.051022 0.000000 -0.010007 -0.191417 -1.897554 169.435257
[null_rope03_connect]
95 -1.257226 -2.466202 137.391083 139.003098 -75.399673 -31.002930 137.418976
96 -1.257226 -2.466202 137.391083 135.267822 -77.308144 -27.977707 137.418976
[null_rope04_connect]
95 -1.259640 -2.480268 -137.844437 139.003098 -75.399673 -31.002930 137.872513
96 -1.259640 -2.480268 -137.844437 135.267822 -77.308144 -27.977707 137.872513
[Rope3_Seg01]
95 -0.000004 0.000382 -0.000191 -90.908813 37.612953 -18.432339 0.000428
96 -0.000003 0.000387 -0.000193 -97.067963 26.599585 -20.334543 0.000432
[Rope3_Seg02]
95 139.999924 -0.000119 0.000060 -1.633458 0.287025 -4.633333 139.999924
96 139.999924 -0.000119 0.000060 -2.396874 0.721673 -4.387539 139.999924
[Rope3_Seg03]
95 139.999924 -0.000119 0.000119 -3.244668 0.642689 -7.111216 139.999924
96 139.999924 -0.000119 0.000119 -4.383825 1.331928 -6.422839 139.999924
[Rope3_Seg04]
95 139.999924 0.000119 0.000000 -8.163109 1.762490 -12.032032 139.999924
96 139.999924 0.000119 0.000000 -9.586097 2.890058 -10.097809 139.999924
[Rope3_Seg05]
95 139.999924 -0.000238 0.000060 -36.569733 7.922791 -27.008369 139.999924
96 139.999924 -0.000238 0.000060 -33.577415 10.082032 -21.294813 139.999924
[Rope3_Seg06]
95 139.999893 -0.000119 -0.000060 -37.201351 18.320963 -15.743837 139.999893
96 139.999893 -0.000119 -0.000060 -30.475182 17.597351 -12.050823 139.999893
[Rope3_Seg07]
95 139.999771 0.000060 -0.000119 -5.034132 4.194864 -1.495667 139.999771
96 139.999771 0.000060 -0.000119 -2.489552 2.032440 -1.264602 139.999771
[Rope3_Seg08]
95 139.999985 -0.000060 0.000000 -5.252905 5.387393 -0.825556 139.999985
96 139.999985 -0.000060 0.000000 -3.659703 3.600444 -0.910452 139.999985
[Rope3_Seg09]
95 90.185997 -0.000179 -0.000060 89.793228 -1.359877 -0.847183 90.185997
96 90.185997 -0.000179 -0.000060 89.793228 -1.359877 -0.847183 90.185997
[R_rear_hand01]
95 103.366196 -6.073594 -10.757982 -158.627975 33.644127 -23.327253 104.101845
96 103.366196 -6.073594 -10.757982 -158.627975 33.644119 -23.327248 104.101845
[R_rear_hand02]
95 100.509819 12.039542 -7.992327 -36.327797 26.496241 23.332451 101.543350
96 100.509819 12.039542 -7.992327 -36.327797 26.496241 23.332451 101.543350
[R_rear_hand03]
95 101.539970 5.215704 5.435467 73.054977 -27.152536 27.950705 101.819031
96 101.539970 5.215704 5.435467 73.054977 -27.152536 27.950705 101.819031
[Rope4_Seg01]
95 -0.000026 0.000014 0.000057 129.107574 -47.132473 -179.170853 0.000064
96 -0.000026 0.000014 0.000056 116.430687 -41.032539 -174.813873 0.000063
[Rope4_Seg02]
95 139.999985 0.000060 0.000119 13.946836 0.595272 12.761173 139.999985
96 139.999985 0.000060 0.000119 17.972689 -1.448041 13.032130 139.999985
[Rope4_Seg03]
95 139.999924 0.000000 -0.000238 11.105309 4.885748 16.177498 139.999924
96 139.999924 0.000000 -0.000238 14.517406 3.735095 17.661509 139.999924
[Rope4_Seg04]
95 139.999985 0.000000 0.000119 5.114679 9.702946 13.531343 139.999985
96 139.999985 0.000000 0.000119 6.650967 9.893933 15.101627 139.999985
[Rope4_Seg05]
95 139.999802 -0.000060 -0.000119 3.244125 6.063641 13.242339 139.999802
96 139.999802 -0.000060 -0.000119 3.885338 6.478569 13.634631 139.999802
[Rope4_Seg06]
95 139.999924 0.000000 0.000060 1.766855 3.861159 20.379549 139.999924
96 139.999924 0.000000 0.000060 2.638475 5.015693 21.206680 139.999924
[Rope4_Seg07]
95 139.999802 0.000000 0.000000 -1.539446 3.960346 18.183455 139.999802
96 139.999802 0.000000 0.000000 -1.218776 5.326027 19.473207 139.999802
[Rope4_Seg08]
95 139.999924 0.000000 0.000119 -3.747121 2.234840 9.645694 139.999924
96 139.999924 0.000000 0.000119 -3.842022 2.888691 10.065619 139.999924
[Rope4_Seg09]
95 90.185791 0.000060 0.000060 -135.617828 2.228885 0.850567 90.185791
96 90.185791 0.000060 0.000060 -135.617828 2.228885 0.850567 90.185791
[L_rear_hand01]
95 101.696655 -8.392275 -7.654577 -33.685818 -15.212530 149.017090 102.329041
96 101.696655 -8.392275 -7.654577 -33.685818 -15.212530 149.017090 102.329041
[L_rear_hand02]
95 102.726799 -1.568258 5.773216 83.407906 30.330435 172.796509 102.900848
96 102.726799 -1.568258 5.773216 83.407906 30.330435 172.796509 102.900848
[L_rear_hand03]
95 104.552910 9.721220 -10.420293 -160.801239 -15.606593 -150.211823 105.519653
96 104.552910 9.721220 -10.420293 -160.801239 -15.606593 -150.211823 105.519653
